# xmcd CD database file
#
# Track frame offsets:
#	150
#	37997
#	78645
#	111085
#	146300
#	165762
#	193887
#	224412
#	256512
#	321077
#	338312
#
# Disc length: 4579 seconds
#
# Revision: 0
# Processed by: cddbd v1.5.1PL0 Copyright (c) Steve Scherf et al.
# Submitted via: CDex 1.51
#
DISCID=8811e10b
DTITLE=ズーカーマン(vn)／メータ、マッケラス(c) - ブルッフ、ラロ、ヴュータン／ヴァイオリン協奏曲／ズーカーマン(vn)
DYEAR=1977
DGENRE=Classical
TTITLE0=ブルッフ／ヴァイオリン協奏曲第１番ト短調Op26?Vorspiel.Allegro moderato
TTITLE1=ブルッフ／ヴァイオリン協奏曲第１番ト短調Op26?Adagio
TTITLE2=ブルッフ／ヴァイオリン協奏曲第１番ト短調Op26?Finale.Allegro energico
TTITLE3=ラロ／スペイン交響曲ニ短調Op21?Allegro non troppo
TTITLE4=ラロ／スペイン交響曲ニ短調Op21?Scherzando.Allegro molto
TTITLE5=ラロ／スペイン交響曲ニ短調Op21?Intermezzo.Allegro non troppo
TTITLE6=ラロ／スペイン交響曲ニ短調Op21?Andante
TTITLE7=ラロ／スペイン交響曲ニ短調Op21?Rondo.Allegro
TTITLE8=ヴュータン／ヴァイオリン協奏曲第５番イ短調Op37?Allegro non troppo-
TTITLE9=ヴュータン／ヴァイオリン協奏曲第５番イ短調Op37?Adagio-
TTITLE10=ヴュータン／ヴァイオリン協奏曲第５番イ短調Op37?Allegro con fuoco
EXTD=YEAR: 1977
EXTT0=
EXTT1=
EXTT2=
EXTT3=
EXTT4=
EXTT5=
EXTT6=
EXTT7=
EXTT8=
EXTT9=
EXTT10=
PLAYORDER=
